<svg width="420" height="397" viewBox="0 0 420 397" fill="none" xmlns="http://www.w3.org/2000/svg">
<path d="M155.298 15.2735C157.7 12.2422 162.3 12.2422 164.702 15.2735L305.702 194.774C307.433 196.957 307.433 200.043 305.702 202.226L164.702 381.726C162.3 384.758 157.7 384.758 155.298 381.726L14.2975 202.226C12.5675 200.043 12.5675 196.957 14.2975 194.774L155.298 15.2735Z" stroke="#1E1E1E" stroke-width="25" stroke-linecap="round"/>
<path d="M255.312 15.2549C257.714 12.2484 262.286 12.2484 264.688 15.2549L405.688 193.255C407.437 195.445 407.437 198.555 405.688 200.745L264.688 378.745C262.286 381.752 257.714 381.752 255.312 378.745L114.312 200.745C112.563 198.555 112.563 195.445 114.312 193.255L255.312 15.2549Z" stroke="#1E1E1E" stroke-width="25" stroke-linecap="round"/>
<path d="M255.312 15.2549C257.714 12.2484 262.286 12.2484 264.688 15.2549L405.688 193.255C407.437 195.445 407.437 198.555 405.688 200.745L264.688 378.745C262.286 381.752 257.714 381.752 255.312 378.745L114.312 200.745C112.563 198.555 112.563 195.445 114.312 193.255L255.312 15.2549Z" stroke="black" stroke-opacity="0.2" stroke-width="25" stroke-linecap="round"/>
</svg>
